<?xml version="1.0" standalone="no"?>
<!DOCTYPE svg PUBLIC "-//W3C//DTD SVG 20010904//EN"
 "http://www.w3.org/TR/2001/REC-SVG-20010904/DTD/svg10.dtd">
<svg version="1.0" xmlns="http://www.w3.org/2000/svg"
 width="640.000000pt" height="640.000000pt" viewBox="0 0 640.000000 640.000000"
 preserveAspectRatio="xMidYMid meet">
<metadata>
Created by potrace 1.11, written by Peter Selinger 2001-2013
</metadata>
<g transform="translate(0.000000,640.000000) scale(0.100000,-0.100000)"
fill="#000000" stroke="none">
<path d="M0 3200 l0 -3200 3200 0 3200 0 0 3200 0 3200 -3200 0 -3200 0 0
-3200z m3365 1101 c44 -5 110 -15 147 -21 l66 -12 -25 -61 c-14 -34 -26 -63
-27 -64 -1 -2 -38 4 -82 12 -131 26 -309 31 -376 11 -102 -29 -128 -83 -128
-263 l0 -113 265 0 265 0 0 -60 0 -60 -265 0 -265 0 0 -405 0 -405 265 0 265
0 0 -60 0 -60 -460 0 -460 0 0 60 0 60 130 0 130 0 0 405 0 405 -130 0 -130 0
0 60 0 60 130 0 130 0 0 108 c0 215 37 309 144 364 85 43 241 58 411 39z
m1400 -457 c155 -41 293 -152 360 -287 166 -338 -5 -725 -365 -823 -81 -22
-289 -25 -370 -5 -374 92 -555 482 -384 830 79 161 242 271 449 305 56 9 250
-3 310 -20z m-2975 -23 c132 -41 252 -137 313 -249 35 -65 57 -160 57 -254 l0
-78 -511 0 -511 0 7 -42 c17 -99 72 -200 143 -264 68 -61 203 -104 323 -104
122 0 320 55 471 131 32 16 62 29 68 29 8 0 60 -89 60 -103 0 -9 -186 -90
-271 -117 -397 -130 -741 -35 -878 244 -139 283 -29 632 243 766 45 22 110 47
146 55 88 20 253 13 340 -14z"/>
<path d="M4433 3725 c-124 -27 -250 -121 -304 -226 -63 -125 -63 -293 0 -418
11 -21 43 -63 70 -93 180 -197 552 -197 733 1 64 69 98 142 111 238 48 332
-251 576 -610 498z"/>
<path d="M1473 3716 c-83 -20 -157 -62 -212 -121 -49 -52 -101 -146 -115 -207
l-6 -28 441 0 441 0 -7 48 c-32 226 -285 370 -542 308z"/>
</g>
</svg>
